# xmcd
#
# Track frame offsets: 
#        150
#        20942
#        40695
#        57175
#        71260
#        89135
#        105592
#        125370
#        145340
#        167625
#        181315
#        199022
#        218295
#        239387
#
# Disc length: 3451 seconds
#
# Revision: 4
# Processed by: cddbd v1.5.1PL0 Copyright (c) Steve Scherf et al.
# Submitted via: ExactAudioCopy v0.95a5
#
DISCID=c10d790e
DTITLE=Various Artist - Marvin is 60
DYEAR=1999
DGENRE=R&B
TTITLE0=Your Precious Love/Erykah Badu and D'angelo
TTITLE1=Distant Lover/Brian Mcknight
TTITLE2=You Sure Love To Ball/Will Downing
TTITLE3=Mercy Mercy Me/Jon.B
TTITLE4=What's Going On/Profyle
TTITLE5=Got To Give It Up/Zhane
TTITLE6=I Want You/Montell Jordan
TTITLE7=Let's Get It On/Gerald Levert
TTITLE8=Sexual Healing/El DeBarge
TTITLE9=Soon I'll Lovinf You Again/Joe
TTITLE10=Til' Tomorrow/Chico DeBarge
TTITLE11=Just To Keep Her Satisfied/Kenny Lattimore
TTITLE12=If This World Were Mine/Grenique and Tony Rich
TTITLE13=Got To Give It Up/kenji Ozawa feat. Zhane and Marvin Gaye
EXTD=YEAR: 1999
EXTT0=
EXTT1=
EXTT2=
EXTT3=
EXTT4=
EXTT5=
EXTT6=
EXTT7=
EXTT8=
EXTT9=
EXTT10=
EXTT11=
EXTT12=
EXTT13=
PLAYORDER=
